<svg width="209" height="34" viewBox="0 0 209 34" fill="none" xmlns="http://www.w3.org/2000/svg">
<path d="M12.1443 10.1475H28.4897V3.03723H7.34948C3.51959 3.03723 0.348454 5.99393 0 9.7362V24.263C0.347423 28.0063 3.51959 30.962 7.34948 30.962H28.4897V23.8527H12.1443C10.9031 23.8527 9.85155 23.097 9.85155 22.2032V11.795C9.85258 10.9032 10.9031 10.1475 12.1443 10.1475Z" fill="white"/>
<path d="M65.4392 30.963H55.1835L53.865 27.5331H43.001L41.6814 30.963H31.4258L40.5196 3.03723H56.3443L65.4392 30.963ZM51.1289 20.4228L48.433 9.12898L45.7361 20.4228H51.1289Z" fill="white"/>
<path d="M94.4234 10.0702H78.9162C78.444 10.0702 78.0512 10.4156 77.9904 10.8836C77.9296 11.3517 78.2213 11.7857 78.677 11.9053L85.142 13.6135C88.8512 14.595 92.2316 15.2465 94.4234 18.1073C94.5172 18.2228 95.2997 19.5259 95.4182 19.7857C96.009 21.0867 96.2492 22.564 96.0523 24.0826C95.6059 27.5166 93.043 30.1702 89.7657 30.8135C89.2657 30.9114 88.7481 30.963 88.2193 30.963H68.3791V23.1352H83.8853C84.3564 23.1352 84.7502 22.7898 84.811 22.3218C84.8719 21.8537 84.5801 21.4197 84.1244 21.2991L77.6595 19.5908C73.8399 18.5795 70.1873 18.1486 68.4018 14.2125C67.811 12.9114 67.5708 11.4341 67.7677 9.91661C68.2141 6.48259 70.776 3.82898 74.0543 3.18671C74.5554 3.08877 75.0719 3.03723 75.6007 3.03723H94.4234V10.0702Z" fill="white"/>
<path d="M99.0576 30.963V3.03723H108.942V30.963H99.0576Z" fill="white"/>
<path d="M141.533 3.03723V30.963H137.657L131.648 26.2032L121.763 18.3733V30.963H111.879V3.03723H115.754L121.763 7.79805L131.648 15.6269V3.03723H141.533Z" fill="white"/>
<path d="M179.209 3.03723H189.094V16.3104L197.383 3.03723H208.099L199.309 17.0383L208.047 30.963H197.333L189.095 17.7651V30.963H179.21V3.03723H179.209Z" fill="#00CE7A"/>
<path d="M169.149 3.04227V0H162.04V3.03712H158.703V0H151.593V3.04227C147.652 3.17835 144.47 6.4464 144.47 10.4196C144.47 11.7742 144.47 23.5814 144.47 23.5814C144.47 27.5546 147.652 30.8216 151.593 30.9577V34H158.703V30.9629H162.04V34H169.149V30.9577C173.09 30.8206 176.273 27.5546 176.273 23.5814V10.4196C176.273 6.44537 173.09 3.17938 169.149 3.04227ZM156.646 23.8526C155.405 23.8526 154.354 23.0969 154.354 22.2041V11.7959C154.354 10.9031 155.405 10.1464 156.646 10.1464H164.095C165.337 10.1464 166.388 10.9031 166.388 11.7959V22.2041C166.388 23.0959 165.337 23.8526 164.095 23.8526H156.646Z" fill="#00CE7A"/>
</svg>
